<mxfile host="app.diagrams.net" modified="2023-11-08T20:10:37.824Z" agent="Mozilla/5.0 (Macintosh; Intel Mac OS X 10_15_7) AppleWebKit/537.36 (KHTML, like Gecko) Chrome/119.0.0.0 Safari/537.36" etag="6hhp26ifIQRL1ptYk7pZ" version="22.0.8" type="device">
  <diagram name="Страница — 1" id="MYMqO2VbF6FANi-159WL">
    <mxGraphModel dx="1194" dy="792" grid="1" gridSize="10" guides="1" tooltips="1" connect="1" arrows="1" fold="1" page="1" pageScale="1" pageWidth="827" pageHeight="1169" math="0" shadow="0">
      <root>
        <mxCell id="0" />
        <mxCell id="1" parent="0" />
        <mxCell id="cW1LyRsGbDHF9ZC7R4pP-1" value="Null" style="rounded=0;whiteSpace=wrap;html=1;" vertex="1" parent="1">
          <mxGeometry x="354" y="80" width="120" height="60" as="geometry" />
        </mxCell>
        <mxCell id="cW1LyRsGbDHF9ZC7R4pP-28" style="edgeStyle=orthogonalEdgeStyle;rounded=0;orthogonalLoop=1;jettySize=auto;html=1;entryX=0.5;entryY=1;entryDx=0;entryDy=0;" edge="1" parent="1" source="cW1LyRsGbDHF9ZC7R4pP-2" target="cW1LyRsGbDHF9ZC7R4pP-1">
          <mxGeometry relative="1" as="geometry" />
        </mxCell>
        <mxCell id="cW1LyRsGbDHF9ZC7R4pP-29" value="[[Prototype]]" style="edgeLabel;html=1;align=center;verticalAlign=middle;resizable=0;points=[];" vertex="1" connectable="0" parent="cW1LyRsGbDHF9ZC7R4pP-28">
          <mxGeometry x="0.1429" relative="1" as="geometry">
            <mxPoint y="10" as="offset" />
          </mxGeometry>
        </mxCell>
        <mxCell id="cW1LyRsGbDHF9ZC7R4pP-2" value="Object.prototype" style="rounded=0;whiteSpace=wrap;html=1;" vertex="1" parent="1">
          <mxGeometry x="354" y="210" width="120" height="60" as="geometry" />
        </mxCell>
        <mxCell id="cW1LyRsGbDHF9ZC7R4pP-9" style="edgeStyle=orthogonalEdgeStyle;rounded=0;orthogonalLoop=1;jettySize=auto;html=1;entryX=0;entryY=0.5;entryDx=0;entryDy=0;" edge="1" parent="1" source="cW1LyRsGbDHF9ZC7R4pP-5" target="cW1LyRsGbDHF9ZC7R4pP-2">
          <mxGeometry relative="1" as="geometry" />
        </mxCell>
        <mxCell id="cW1LyRsGbDHF9ZC7R4pP-5" value="Function.prototype" style="rounded=0;whiteSpace=wrap;html=1;" vertex="1" parent="1">
          <mxGeometry x="70" y="210" width="120" height="60" as="geometry" />
        </mxCell>
        <mxCell id="cW1LyRsGbDHF9ZC7R4pP-10" style="edgeStyle=orthogonalEdgeStyle;rounded=0;orthogonalLoop=1;jettySize=auto;html=1;entryX=0.25;entryY=1;entryDx=0;entryDy=0;" edge="1" parent="1" source="cW1LyRsGbDHF9ZC7R4pP-6" target="cW1LyRsGbDHF9ZC7R4pP-2">
          <mxGeometry relative="1" as="geometry" />
        </mxCell>
        <mxCell id="cW1LyRsGbDHF9ZC7R4pP-23" value="[[Prototype]]" style="edgeLabel;html=1;align=center;verticalAlign=middle;resizable=0;points=[];" vertex="1" connectable="0" parent="cW1LyRsGbDHF9ZC7R4pP-10">
          <mxGeometry x="0.4227" relative="1" as="geometry">
            <mxPoint y="4" as="offset" />
          </mxGeometry>
        </mxCell>
        <mxCell id="cW1LyRsGbDHF9ZC7R4pP-6" value="Array.prototype" style="rounded=0;whiteSpace=wrap;html=1;" vertex="1" parent="1">
          <mxGeometry x="200" y="370" width="120" height="60" as="geometry" />
        </mxCell>
        <mxCell id="cW1LyRsGbDHF9ZC7R4pP-12" style="edgeStyle=orthogonalEdgeStyle;rounded=0;orthogonalLoop=1;jettySize=auto;html=1;entryX=0.75;entryY=1;entryDx=0;entryDy=0;" edge="1" parent="1" source="cW1LyRsGbDHF9ZC7R4pP-7" target="cW1LyRsGbDHF9ZC7R4pP-2">
          <mxGeometry relative="1" as="geometry" />
        </mxCell>
        <mxCell id="cW1LyRsGbDHF9ZC7R4pP-24" value="[[Prototype]]" style="edgeLabel;html=1;align=center;verticalAlign=middle;resizable=0;points=[];" vertex="1" connectable="0" parent="cW1LyRsGbDHF9ZC7R4pP-12">
          <mxGeometry x="0.3735" y="-3" relative="1" as="geometry">
            <mxPoint y="2" as="offset" />
          </mxGeometry>
        </mxCell>
        <mxCell id="cW1LyRsGbDHF9ZC7R4pP-7" value="Number.prototype" style="rounded=0;whiteSpace=wrap;html=1;" vertex="1" parent="1">
          <mxGeometry x="500" y="370" width="120" height="60" as="geometry" />
        </mxCell>
        <mxCell id="cW1LyRsGbDHF9ZC7R4pP-13" style="edgeStyle=orthogonalEdgeStyle;rounded=0;orthogonalLoop=1;jettySize=auto;html=1;entryX=1;entryY=0.5;entryDx=0;entryDy=0;" edge="1" parent="1" source="cW1LyRsGbDHF9ZC7R4pP-8" target="cW1LyRsGbDHF9ZC7R4pP-2">
          <mxGeometry relative="1" as="geometry" />
        </mxCell>
        <mxCell id="cW1LyRsGbDHF9ZC7R4pP-8" value="String.prototype" style="rounded=0;whiteSpace=wrap;html=1;" vertex="1" parent="1">
          <mxGeometry x="650" y="210" width="120" height="60" as="geometry" />
        </mxCell>
        <mxCell id="cW1LyRsGbDHF9ZC7R4pP-15" style="edgeStyle=orthogonalEdgeStyle;rounded=0;orthogonalLoop=1;jettySize=auto;html=1;entryX=0.5;entryY=1;entryDx=0;entryDy=0;" edge="1" parent="1" source="cW1LyRsGbDHF9ZC7R4pP-14" target="cW1LyRsGbDHF9ZC7R4pP-6">
          <mxGeometry relative="1" as="geometry" />
        </mxCell>
        <mxCell id="cW1LyRsGbDHF9ZC7R4pP-27" value="[[Prototype]]" style="edgeLabel;html=1;align=center;verticalAlign=middle;resizable=0;points=[];" vertex="1" connectable="0" parent="cW1LyRsGbDHF9ZC7R4pP-15">
          <mxGeometry x="-0.12" y="-3" relative="1" as="geometry">
            <mxPoint as="offset" />
          </mxGeometry>
        </mxCell>
        <mxCell id="cW1LyRsGbDHF9ZC7R4pP-14" value="[1, 2, 3, 4]" style="rounded=0;whiteSpace=wrap;html=1;" vertex="1" parent="1">
          <mxGeometry x="200" y="500" width="120" height="30" as="geometry" />
        </mxCell>
        <mxCell id="cW1LyRsGbDHF9ZC7R4pP-17" style="edgeStyle=orthogonalEdgeStyle;rounded=0;orthogonalLoop=1;jettySize=auto;html=1;entryX=0.5;entryY=1;entryDx=0;entryDy=0;" edge="1" parent="1" source="cW1LyRsGbDHF9ZC7R4pP-16" target="cW1LyRsGbDHF9ZC7R4pP-7">
          <mxGeometry relative="1" as="geometry" />
        </mxCell>
        <mxCell id="cW1LyRsGbDHF9ZC7R4pP-26" value="[[Prototype]]" style="edgeLabel;html=1;align=center;verticalAlign=middle;resizable=0;points=[];" vertex="1" connectable="0" parent="cW1LyRsGbDHF9ZC7R4pP-17">
          <mxGeometry y="-2" relative="1" as="geometry">
            <mxPoint as="offset" />
          </mxGeometry>
        </mxCell>
        <mxCell id="cW1LyRsGbDHF9ZC7R4pP-16" value="5" style="rounded=0;whiteSpace=wrap;html=1;" vertex="1" parent="1">
          <mxGeometry x="500" y="500" width="120" height="30" as="geometry" />
        </mxCell>
        <mxCell id="cW1LyRsGbDHF9ZC7R4pP-19" style="edgeStyle=orthogonalEdgeStyle;rounded=0;orthogonalLoop=1;jettySize=auto;html=1;entryX=0.5;entryY=1;entryDx=0;entryDy=0;" edge="1" parent="1" source="cW1LyRsGbDHF9ZC7R4pP-18" target="cW1LyRsGbDHF9ZC7R4pP-8">
          <mxGeometry relative="1" as="geometry" />
        </mxCell>
        <mxCell id="cW1LyRsGbDHF9ZC7R4pP-25" value="[[Prototype]]" style="edgeLabel;html=1;align=center;verticalAlign=middle;resizable=0;points=[];" vertex="1" connectable="0" parent="cW1LyRsGbDHF9ZC7R4pP-19">
          <mxGeometry x="0.04" y="-4" relative="1" as="geometry">
            <mxPoint as="offset" />
          </mxGeometry>
        </mxCell>
        <mxCell id="cW1LyRsGbDHF9ZC7R4pP-18" value="&#39;String&#39;" style="rounded=0;whiteSpace=wrap;html=1;" vertex="1" parent="1">
          <mxGeometry x="650" y="330" width="120" height="30" as="geometry" />
        </mxCell>
        <mxCell id="cW1LyRsGbDHF9ZC7R4pP-21" style="edgeStyle=orthogonalEdgeStyle;rounded=0;orthogonalLoop=1;jettySize=auto;html=1;entryX=0.5;entryY=1;entryDx=0;entryDy=0;" edge="1" parent="1" source="cW1LyRsGbDHF9ZC7R4pP-20" target="cW1LyRsGbDHF9ZC7R4pP-5">
          <mxGeometry relative="1" as="geometry" />
        </mxCell>
        <mxCell id="cW1LyRsGbDHF9ZC7R4pP-22" value="[[Prototype]]" style="edgeLabel;html=1;align=center;verticalAlign=middle;resizable=0;points=[];" vertex="1" connectable="0" parent="cW1LyRsGbDHF9ZC7R4pP-21">
          <mxGeometry y="-1" relative="1" as="geometry">
            <mxPoint as="offset" />
          </mxGeometry>
        </mxCell>
        <mxCell id="cW1LyRsGbDHF9ZC7R4pP-20" value="function() {}" style="rounded=0;whiteSpace=wrap;html=1;" vertex="1" parent="1">
          <mxGeometry x="70" y="330" width="120" height="30" as="geometry" />
        </mxCell>
      </root>
    </mxGraphModel>
  </diagram>
</mxfile>
